# xmcd
# Track frame offsets:
# 150
# 20166
# 37905
# 61392
# 80553
# 96229
# 112574
# 128278
# 144291
# 165695
# 185963
#
# Disc length: 2756 seconds
# Revision: 4
# Processed by: cddbd v1.5.2PL0 Copyright (c) Steve Scherf et al.
# Submitted via: VisiTrax 2.11.3.279 - For more info visit www.synapsa.com
#
DISCID=880ac20b
DTITLE=Tim McGraw - Two Lanes of Freedom
DYEAR=2013
DGENRE=Country NeoTraditional
TTITLE0=Two Lanes of Freedom
TTITLE1=One of Those Nights
TTITLE2=Friend of a Friend
TTITLE3=Southern Girl
TTITLE4=Truck Yeah
TTITLE5=Nashville Without You
TTITLE6=Book of John
TTITLE7=Mexicoma
TTITLE8=Number 37405
TTITLE9=It's Your World
TTITLE10=Highway Don't Care
EXTD=YEAR: 2013
EXTT0=
EXTT1=
EXTT2=
EXTT3=
EXTT4=
EXTT5=
EXTT6=
EXTT7=
EXTT8=
EXTT9=
EXTT10=
PLAYORDER=
